The Last Keepers 2013 DVDrip Xvid Ac3-MiLLENiUM

 
http://www.imdb.com/title/tt1716767/


General

Complete name :
The.Last.Keepers.2013.DVDrip.Xvid-Ac3-MiLLENiUM.avi
Source : DVDR iNVANDRAREN [Thanks]
Format : AVI
Format/Info : Audio Video Interleave
File size : 1.13 GiB
Duration : 1h 25mn
Overall bit rate : 1 897 Kbps
Writing application : VirtualDubMod 1.5.10.2 (build 2540/release)
Writing library : VirtualDubMod build 2540/release

Video

ID : 0
Format : MPEG-4 Visual
Format profile : Advanced Simple@L5
Format settings, BVOP : 2
Format settings, QPel : No
Format settings, GMC : No warppoints
Format settings, Matrix : Default (H.263)
Muxing mode : Packed bitstream
Codec ID : XVID
Codec ID/Hint : XviD
Duration : 1h 25mn
Bit rate : 1 695 Kbps
Width : 720 pixels
Height : 384 pixels
Display aspect ratio : 1.875
Frame rate : 25.000 fps
Color space : YUV
Chroma subsampling : 4:2:0
Bit depth : 8 bits
Scan type : Progressive
Compression mode : Lossy
Bits/(Pixel*Frame) : 0.245
Stream size : 1.01 GiB (89%)
Writing library : XviD 1.2.1 (UTC 2008-12-04)

Audio

ID : 1
Format : AC-3
Format/Info : Audio Coding 3
Mode extension : CM (complete main)
Codec ID : 2000
Duration : 1h 25mn
Bit rate mode : Constant
Bit rate : 192 Kbps
Channel(s) : 2 channels
Channel positions : Front: L R
Sampling rate : 48.0 KHz
Bit depth : 16 bits
Compression mode : Lossy
Stream size : 117 MiB (10%)
Alignment : Split accross interleaves
Interleave, duration : 40 ms (1.00 video frame)
Interleave, preload duration : 500 ms


GREETZ TO ALL

RESPECT TO MY CREW FOR ALWAYS STICKING TOGETHER


Poster:

 
http://i.imgur.com/4hOXsAX.jpg


Screenshots:

 
http://i.imgur.com/LnLdOqr.jpg


SEED AND ENJOY!